{
  "accessors": [
    {
      "bufferView": 2,
      "componentType": 5126,
      "count": 7135,
      "max": [
        0.022683709859848022,
        0.008873552083969116,
        0.022683707997202873
      ],
      "min": [
        -0.023606831207871437,
        -0.00887400470674038,
        -0.022683709859848022
      ],
      "type": "VEC3"
    },
    {
      "bufferView": 2,
      "byteOffset": 85620,
      "componentType": 5126,
      "count": 7135,
      "max": [
        1.0,
        1.0,
        1.0
      ],
      "min": [
        -1.0,
        -1.0,
        -1.0
      ],
      "type": "VEC3"
    },
    {
      "bufferView": 1,
      "componentType": 5126,
      "count": 7135,
      "max": [
        0.8967107534408569,
        1.0000001192092896
      ],
      "min": [
        0.0,
        0.0
      ],
      "type": "VEC2"
    },
    {
      "bufferView": 0,
      "componentType": 5125,
      "count": 25545,
      "type": "SCALAR"
    },
    {
      "bufferView": 2,
      "byteOffset": 171240,
      "componentType": 5126,
      "count": 38341,
      "max": [
        -0.010850152932107449,
        0.00942240096628666,
        0.018157517537474632
      ],
      "min": [
        -0.024068836122751236,
        -0.009422401897609234,
        -0.018157510086894035
      ],
      "type": "VEC3"
    },
    {
      "bufferView": 2,
      "byteOffset": 631332,
      "componentType": 5126,
      "count": 38341,
      "max": [
        0.9466901421546936,
        1.0,
        0.9473375678062439
      ],
      "min": [
        -1.0,
        -1.0,
        -0.9473345875740051
      ],
      "type": "VEC3"
    },
    {
      "bufferView": 1,
      "byteOffset": 57080,
      "componentType": 5126,
      "count": 38341,
      "max": [
        0.5655339956283569,
        1.0000005960464478
      ],
      "min": [
        0.40052545070648193,
        -1.176775526801066e-06
      ],
      "type": "VEC2"
    },
    {
      "bufferView": 0,
      "byteOffset": 102180,
      "componentType": 5125,
      "count": 61971,
      "type": "SCALAR"
    }
  ],
  "asset": {
    "extras": {
      "author": "AbdulRahim (https://sketchfab.com/IshmalAdil)",
      "license": "CC-BY-4.0 (http://creativecommons.org/licenses/by/4.0/)",
      "source": "https://sketchfab.com/3d-models/diamond-ring-3d-print-ready-da94a897b282482185f6dcd234088f83",
      "title": "Diamond Ring 3D PRINT READY"
    },
    "generator": "Sketchfab-15.77.0",
    "version": "2.0"
  },
  "bufferViews": [
    {
      "buffer": 0,
      "byteLength": 350064,
      "name": "floatBufferViews",
      "target": 34963
    },
    {
      "buffer": 0,
      "byteLength": 363808,
      "byteOffset": 350064,
      "byteStride": 8,
      "name": "floatBufferViews",
      "target": 34962
    },
    {
      "buffer": 0,
      "byteLength": 1091424,
      "byteOffset": 713872,
      "byteStride": 12,
      "name": "floatBufferViews",
      "target": 34962
    }
  ],
  "buffers": [
    {
      "byteLength": 1805296,
      "uri": "scene.bin"
    }
  ],
  "extensionsUsed": [
    "KHR_materials_specular",
    "KHR_materials_clearcoat"
  ],
  "materials": [
    {
      "doubleSided": true,
      "extensions": {
        "KHR_materials_specular": {
          "specularColorFactor": [
            1.0,
            1.0,
            1.0
          ],
          "specularFactor": 1.0
        }
      },
      "name": "Material.001",
      "pbrMetallicRoughness": {
        "baseColorFactor": [
          1.0,
          0.5770298734565487,
          0.09001585088471749,
          1.0
        ],
        "roughnessFactor": 0.0
      }
    },
    {
      "doubleSided": true,
      "extensions": {
        "KHR_materials_clearcoat": {
          "clearcoatFactor": 1.0,
          "clearcoatRoughnessFactor": 0.04
        },
        "KHR_materials_specular": {
          "specularColorFactor": [
            1.0,
            1.0,
            1.0
          ],
          "specularFactor": 1.0
        }
      },
      "name": "Material.002",
      "pbrMetallicRoughness": {
        "baseColorFactor": [
          1.0,
          1.0,
          0.984887,
          1.0
        ],
        "roughnessFactor": 0.14623652282169342
      }
    }
  ],
  "meshes": [
    {
      "name": "Object_0",
      "primitives": [
        {
          "attributes": {
            "NORMAL": 1,
            "POSITION": 0,
            "TEXCOORD_0": 2
          },
          "indices": 3,
          "material": 0,
          "mode": 4
        }
      ]
    },
    {
      "name": "Object_1",
      "primitives": [
        {
          "attributes": {
            "NORMAL": 5,
            "POSITION": 4,
            "TEXCOORD_0": 6
          },
          "indices": 7,
          "material": 1,
          "mode": 4
        }
      ]
    }
  ],
  "nodes": [
    {
      "children": [
        1
      ],
      "matrix": [
        1.0,
        -1.6081226229577292e-16,
        -5.356124287284811e-32,
        0.0,
        8.006836424271825e-33,
        3.828568672208042e-16,
        -1.0,
        0.0,
        1.6081226229577292e-16,
        1.0,
        3.828568672208042e-16,
        0.0,
        0.0,
        0.0,
        0.0,
        1.0
      ],
      "name": "Sketchfab_model"
    },
    {
      "children": [
        2
      ],
      "name": "root"
    },
    {
      "children": [
        3
      ],
      "matrix": [
        1.0,
        0.0,
        0.0,
        0.0,
        0.0,
        2.220446049250313e-16,
        1.0,
        0.0,
        0.0,
        -1.0,
        2.220446049250313e-16,
        0.0,
        0.0,
        0.0,
        0.0,
        1.0
      ],
      "name": "GLTF_SceneRootNode"
    },
    {
      "children": [
        4,
        5
      ],
      "matrix": [
        8.429369480200677e-08,
        -0.9999999999999966,
        -0.0,
        0.0,
        0.9999999999999966,
        8.429369480200677e-08,
        0.0,
        0.0,
        0.0,
        -0.0,
        1.0,
        0.0,
        -0.0061415089294314384,
        0.0,
        0.0,
        1.0
      ],
      "name": "Ring_0"
    },
    {
      "mesh": 0,
      "name": "Object_4"
    },
    {
      "mesh": 1,
      "name": "Object_5"
    }
  ],
  "scene": 0,
  "scenes": [
    {
      "name": "Sketchfab_Scene",
      "nodes": [
        0
      ]
    }
  ]
}
